<svg xmlns="http://www.w3.org/2000/svg" width="64" height="64" enable-background="new 0 0 64 64" viewBox="0 0 64 64"><pattern id="b" width="33.954" height="29.796" x="-252" y="-420" overflow="visible" patternUnits="userSpaceOnUse" viewBox="0 -29.796 33.954 29.796"><polygon fill="none" points="0 0 33.954 0 33.954 -29.796 0 -29.796"/><polygon fill="#DAD7EC" points="33.954 0 0 0 0 -29.796 33.954 -29.796"/></pattern><pattern id="a" width="98" height="86" x="-252" y="-420" overflow="visible" patternUnits="userSpaceOnUse" viewBox="0 -86 98 86"><polygon fill="none" points="0 0 98 0 98 -86 0 -86"/><polygon fill="#6D6DA9" points="98 0 0 0 0 -86 98 -86"/></pattern><pattern id="c" width="33.954" height="29.796" x="-252" y="-420" overflow="visible" patternUnits="userSpaceOnUse" viewBox="0 -29.796 33.954 29.796"><polygon fill="none" points="0 0 33.954 0 33.954 -29.796 0 -29.796"/><polygon fill="#FFD599" points="33.954 0 0 0 0 -29.796 33.954 -29.796"/></pattern><path fill="url(#a)" d="M64.07,27.389c-0.01-0.1-0.02-0.2-0.06-0.28c-0.01-0.04-0.05-0.07-0.07-0.11
		c-0.05-0.08-0.1-0.16-0.17-0.23c-0.01,0-0.01-0.02-0.02-0.02l-31.09-27c-0.38-0.33-0.94-0.33-1.32,0l-31.09,27
		c-0.01,0-0.01,0.02-0.02,0.02c-0.07,0.07-0.13,0.15-0.18,0.24c-0.02,0.03-0.05,0.06-0.06,0.09c-0.05,0.11-0.07,0.23-0.07,0.34
		c-0.01,0.03-0.02,0.05-0.02,0.07c0,0.01,0,0.01,0,0.01v35.98c0,0.05,0.03,0.09,0.03,0.13c0.01,0.07,0.02,0.14,0.04,0.21
		c0.03,0.07,0.07,0.12,0.1,0.18c0.03,0.04,0.04,0.09,0.07,0.12c0.01,0.01,0.02,0.02,0.03,0.03c0.07,0.07,0.16,0.13,0.25,0.19
		c0.03,0.01,0.05,0.04,0.08,0.05c0.13,0.06,0.26,0.09,0.4,0.09h62.19c0.15,0,0.28-0.03,0.41-0.09c0.03-0.01,0.05-0.04,0.08-0.05
		c0.09-0.06,0.18-0.12,0.25-0.19c0.01-0.01,0.02-0.02,0.03-0.03c0.03-0.03,0.04-0.08,0.07-0.12c0.03-0.06,0.07-0.11,0.1-0.18
		c0.02-0.07,0.03-0.14,0.04-0.21c0-0.04,0.02-0.08,0.02-0.13v-35.97c0-0.01,0.01-0.01,0.01-0.02
		C64.1,27.469,64.08,27.429,64.07,27.389z M32,1.829l29.56,25.66L32,52.229L2.44,27.489L32,1.829z M1.9,29.649l18.94,15.85
		L1.9,61.359V29.649z M3.66,62.499l18.74-15.69l8.96,7.5c0.18,0.15,0.41,0.23,0.64,0.23s0.46-0.08,0.64-0.23l8.96-7.5l18.74,15.69
		H3.66z M62.09,61.359l-18.93-15.86l18.93-15.85V61.359z"/><polygon fill="url(#b)" points="20.84 45.499 1.9 61.359 1.9 29.649"/><path fill="url(#b)" d="M32,1.829L2.44,27.489L32,52.229l29.56-24.74L32,1.829z M39.65,28.329
		c-0.14,0.52-0.34,1.01-0.58,1.48c-0.24,0.46-0.54,0.87-0.89,1.22c-0.35,0.36-0.76,0.63-1.23,0.83c-0.46,0.2-0.99,0.3-1.6,0.3
		c-0.32,0-0.61-0.04-0.89-0.11c-0.27-0.08-0.51-0.18-0.72-0.33c-0.21-0.14-0.39-0.32-0.54-0.54c-0.14-0.22-0.24-0.48-0.3-0.77
		c-0.31,0.31-0.61,0.58-0.9,0.81c-0.3,0.22-0.58,0.4-0.87,0.54c-0.28,0.14-0.55,0.24-0.82,0.3c-0.27,0.07-0.53,0.1-0.79,0.1
		c-0.34,0-0.64-0.03-0.89-0.1c-0.26-0.07-0.49-0.17-0.69-0.29c-0.2-0.13-0.37-0.29-0.51-0.48c-0.14-0.19-0.26-0.4-0.35-0.63
		c-0.09-0.24-0.16-0.49-0.2-0.77c-0.04-0.29-0.06-0.59-0.06-0.92s0.03-0.72,0.08-1.15c0.06-0.44,0.15-0.88,0.27-1.35
		c0.13-0.46,0.3-0.91,0.52-1.35c0.22-0.44,0.49-0.83,0.81-1.18c0.33-0.35,0.71-0.63,1.16-0.85c0.44-0.21,0.96-0.32,1.56-0.32
		c0.25,0,0.49,0.03,0.72,0.09c0.23,0.06,0.45,0.15,0.66,0.28c0.21,0.12,0.41,0.28,0.61,0.46c0.19,0.19,0.39,0.41,0.6,0.67l0.2-1.03
		c0.03-0.11,0.1-0.19,0.21-0.25c0.11-0.05,0.31-0.08,0.61-0.08c0.14,0,0.26,0.01,0.35,0.03c0.1,0.01,0.18,0.03,0.23,0.06
		c0.06,0.03,0.09,0.06,0.11,0.1c0.02,0.04,0.02,0.09,0.01,0.14l-1.04,5.39c-0.13,0.68-0.1,1.18,0.09,1.51
		c0.19,0.32,0.54,0.48,1.07,0.48c0.32,0,0.61-0.08,0.86-0.24c0.26-0.16,0.49-0.37,0.68-0.65c0.2-0.27,0.36-0.59,0.5-0.95
		c0.13-0.37,0.24-0.75,0.32-1.15c0.09-0.4,0.15-0.82,0.19-1.24c0.04-0.42,0.06-0.83,0.06-1.22c0-0.68-0.09-1.32-0.28-1.94
		c-0.18-0.61-0.49-1.15-0.94-1.61c-0.44-0.47-1.04-0.84-1.79-1.12c-0.74-0.27-1.68-0.41-2.8-0.41c-0.92,0-1.74,0.1-2.46,0.3
		c-0.72,0.21-1.36,0.48-1.9,0.83c-0.55,0.35-1.02,0.75-1.41,1.2c-0.39,0.45-0.72,0.94-0.99,1.45c-0.27,0.51-0.48,1.03-0.65,1.57
		c-0.16,0.53-0.29,1.05-0.37,1.54c-0.09,0.5-0.15,0.97-0.17,1.41c-0.03,0.43-0.04,0.8-0.04,1.11c0,0.87,0.09,1.66,0.29,2.38
		c0.2,0.72,0.55,1.34,1.04,1.86c0.49,0.52,1.15,0.93,1.98,1.22c0.83,0.29,1.87,0.43,3.13,0.43c0.57,0,1.09-0.03,1.55-0.1
		c0.46-0.06,0.86-0.13,1.2-0.21c0.34-0.07,0.61-0.14,0.82-0.21c0.22-0.06,0.36-0.1,0.44-0.1c0.05,0,0.09,0.02,0.12,0.04
		c0.04,0.03,0.06,0.07,0.08,0.13c0.02,0.06,0.04,0.13,0.04,0.22c0.01,0.09,0.02,0.21,0.02,0.34c0,0.11-0.01,0.2-0.01,0.27
		s-0.01,0.13-0.03,0.19c-0.01,0.06-0.04,0.11-0.06,0.16c-0.03,0.05-0.07,0.09-0.11,0.13c-0.05,0.04-0.19,0.1-0.41,0.17
		c-0.22,0.08-0.52,0.16-0.9,0.24c-0.38,0.08-0.82,0.14-1.33,0.2c-0.51,0.05-1.07,0.08-1.68,0.08c-1.46,0-2.69-0.17-3.71-0.52
		c-1.01-0.34-1.83-0.83-2.47-1.47c-0.64-0.64-1.09-1.41-1.38-2.31c-0.28-0.9-0.42-1.9-0.42-3.01c0-0.41,0.02-0.88,0.07-1.4
		c0.04-0.53,0.12-1.09,0.24-1.69c0.12-0.6,0.29-1.21,0.51-1.83c0.22-0.62,0.5-1.23,0.85-1.82c0.35-0.59,0.77-1.16,1.27-1.68
		c0.49-0.53,1.08-0.99,1.76-1.39c0.67-0.39,1.44-0.7,2.32-0.93c0.87-0.22,1.85-0.34,2.95-0.34c1.29,0,2.39,0.16,3.33,0.47
		c0.93,0.3,1.7,0.74,2.31,1.3c0.61,0.57,1.06,1.25,1.36,2.06c0.3,0.81,0.45,1.71,0.45,2.7c0,0.53-0.04,1.07-0.1,1.63
		C39.91,27.259,39.8,27.799,39.65,28.329z"/><path fill="url(#b)" d="M60.34,62.499H3.66l18.74-15.69l8.96,7.5c0.18,0.15,0.41,0.23,0.64,0.23
		s0.46-0.08,0.64-0.23l8.96-7.5L60.34,62.499z"/><polygon fill="url(#b)" points="62.09 29.649 62.09 61.359 43.16 45.499"/><path fill="url(#a)" d="M39.63,22.379c-0.3-0.81-0.75-1.49-1.36-2.06c-0.61-0.56-1.38-1-2.31-1.3
		c-0.94-0.31-2.04-0.47-3.33-0.47c-1.1,0-2.08,0.12-2.95,0.34c-0.88,0.23-1.65,0.54-2.32,0.93c-0.68,0.4-1.27,0.86-1.76,1.39
		c-0.5,0.52-0.92,1.09-1.27,1.68c-0.35,0.59-0.63,1.2-0.85,1.82c-0.22,0.62-0.39,1.23-0.51,1.83c-0.12,0.6-0.2,1.16-0.24,1.69
		c-0.05,0.52-0.07,0.99-0.07,1.4c0,1.11,0.14,2.11,0.42,3.01c0.29,0.9,0.74,1.67,1.38,2.31c0.64,0.64,1.46,1.13,2.47,1.47
		c1.02,0.35,2.25,0.52,3.71,0.52c0.61,0,1.17-0.03,1.68-0.08c0.51-0.06,0.95-0.12,1.33-0.2c0.38-0.08,0.68-0.16,0.9-0.24
		c0.22-0.07,0.36-0.13,0.41-0.17c0.04-0.04,0.08-0.08,0.11-0.13c0.02-0.05,0.05-0.1,0.06-0.16c0.02-0.06,0.03-0.12,0.03-0.19
		s0.01-0.16,0.01-0.27c0-0.13-0.01-0.25-0.02-0.34c0-0.09-0.02-0.16-0.04-0.22c-0.02-0.06-0.04-0.1-0.08-0.13
		c-0.03-0.02-0.07-0.04-0.12-0.04c-0.08,0-0.22,0.04-0.44,0.1c-0.21,0.07-0.48,0.14-0.82,0.21c-0.34,0.08-0.74,0.15-1.2,0.21
		c-0.46,0.07-0.98,0.1-1.55,0.1c-1.26,0-2.3-0.14-3.13-0.43c-0.83-0.29-1.49-0.7-1.98-1.22c-0.49-0.52-0.84-1.14-1.04-1.86
		c-0.2-0.72-0.29-1.51-0.29-2.38c0-0.31,0.01-0.68,0.04-1.11c0.02-0.44,0.08-0.91,0.17-1.41c0.08-0.49,0.21-1.01,0.37-1.54
		c0.17-0.54,0.38-1.06,0.65-1.57c0.27-0.51,0.6-1,0.99-1.45c0.39-0.45,0.86-0.85,1.41-1.2c0.54-0.35,1.18-0.62,1.9-0.83
		c0.72-0.2,1.54-0.3,2.46-0.3c1.12,0,2.06,0.14,2.8,0.41c0.75,0.28,1.35,0.65,1.79,1.12c0.45,0.46,0.76,1,0.94,1.61
		c0.19,0.62,0.28,1.26,0.28,1.94c0,0.39-0.02,0.8-0.06,1.22c-0.04,0.42-0.1,0.84-0.19,1.24c-0.08,0.4-0.19,0.78-0.32,1.15
		c-0.14,0.36-0.3,0.68-0.5,0.95c-0.19,0.28-0.42,0.49-0.68,0.65c-0.25,0.16-0.54,0.24-0.86,0.24c-0.53,0-0.88-0.16-1.07-0.48
		c-0.19-0.33-0.22-0.83-0.09-1.51l1.04-5.39c0.01-0.05,0.01-0.1-0.01-0.14c-0.02-0.04-0.05-0.07-0.11-0.1
		c-0.05-0.03-0.13-0.05-0.23-0.06c-0.09-0.02-0.21-0.03-0.35-0.03c-0.3,0-0.5,0.03-0.61,0.08c-0.11,0.06-0.18,0.14-0.21,0.25
		l-0.2,1.03c-0.21-0.26-0.41-0.48-0.6-0.67c-0.2-0.18-0.4-0.34-0.61-0.46c-0.21-0.13-0.43-0.22-0.66-0.28
		c-0.23-0.06-0.47-0.09-0.72-0.09c-0.6,0-1.12,0.11-1.56,0.32c-0.45,0.22-0.83,0.5-1.16,0.85c-0.32,0.35-0.59,0.74-0.81,1.18
		c-0.22,0.44-0.39,0.89-0.52,1.35c-0.12,0.47-0.21,0.91-0.27,1.35c-0.05,0.43-0.08,0.82-0.08,1.15s0.02,0.63,0.06,0.92
		c0.04,0.28,0.11,0.53,0.2,0.77c0.09,0.23,0.21,0.44,0.35,0.63c0.14,0.19,0.31,0.35,0.51,0.48c0.2,0.12,0.43,0.22,0.69,0.29
		c0.25,0.07,0.55,0.1,0.89,0.1c0.26,0,0.52-0.03,0.79-0.1c0.27-0.06,0.54-0.16,0.82-0.3c0.29-0.14,0.57-0.32,0.87-0.54
		c0.29-0.23,0.59-0.5,0.9-0.81c0.06,0.29,0.16,0.55,0.3,0.77c0.15,0.22,0.33,0.4,0.54,0.54c0.21,0.15,0.45,0.25,0.72,0.33
		c0.28,0.07,0.57,0.11,0.89,0.11c0.61,0,1.14-0.1,1.6-0.3c0.47-0.2,0.88-0.47,1.23-0.83c0.35-0.35,0.65-0.76,0.89-1.22
		c0.24-0.47,0.44-0.96,0.58-1.48c0.15-0.53,0.26-1.07,0.33-1.62c0.06-0.56,0.1-1.1,0.1-1.63C40.08,24.089,39.93,23.189,39.63,22.379
		z M32.72,28.889c-0.3,0.3-0.57,0.57-0.82,0.79c-0.24,0.22-0.48,0.4-0.69,0.54c-0.22,0.14-0.43,0.24-0.63,0.3
		c-0.19,0.07-0.38,0.1-0.57,0.1c-0.49,0-0.84-0.15-1.05-0.47c-0.21-0.31-0.31-0.75-0.31-1.33c0-0.24,0.02-0.52,0.05-0.84
		c0.04-0.32,0.1-0.64,0.18-0.98c0.09-0.33,0.2-0.66,0.34-0.98c0.14-0.32,0.3-0.61,0.5-0.86c0.19-0.26,0.42-0.46,0.69-0.62
		c0.26-0.16,0.56-0.24,0.89-0.24c0.4,0,0.75,0.13,1.07,0.39c0.31,0.27,0.61,0.65,0.91,1.15L32.72,28.889z"/><path fill="url(#c)" d="M33.28,25.839l-0.56,3.05c-0.3,0.3-0.57,0.57-0.82,0.79c-0.24,0.22-0.48,0.4-0.69,0.54
		c-0.22,0.14-0.43,0.24-0.63,0.3c-0.19,0.07-0.38,0.1-0.57,0.1c-0.49,0-0.84-0.15-1.05-0.47c-0.21-0.31-0.31-0.75-0.31-1.33
		c0-0.24,0.02-0.52,0.05-0.84c0.04-0.32,0.1-0.64,0.18-0.98c0.09-0.33,0.2-0.66,0.34-0.98c0.14-0.32,0.3-0.61,0.5-0.86
		c0.19-0.26,0.42-0.46,0.69-0.62c0.26-0.16,0.56-0.24,0.89-0.24c0.4,0,0.75,0.13,1.07,0.39C32.68,24.959,32.98,25.339,33.28,25.839z
		"/></svg>