<svg xmlns="http://www.w3.org/2000/svg" viewBox="0 0 64 64"><g data-name="flip flops"><path fill="#f78769" d="M35,22.5V43.89a11.1,11.1,0,0,0,21.59,3.65l1.31-3.77A1.94,1.94,0,0,1,57,44a2,2,0,0,1-2-1.94C54.66,30.39,51.5,24,46,24c-3.82,0-6.57,5.29-7,13.09a2,2,0,0,1-4-.18c.48-10.73,4.71-15.54,9-16.65V17a2,2,0,0,1,2-2,2,2,0,0,1,2,2v3.18c4.52.85,10.25,5.05,10.93,20.65A56.06,56.06,0,0,0,62,22.5a13.5,13.5,0,1,0-27,0Z"/><path fill="#f8de40" d="M35.05,36.91a2,2,0,0,0,4,.18C39.43,29.29,42.18,24,46,24c5.5,0,8.66,6.39,9,18.06A2,2,0,0,0,57,44a1.94,1.94,0,0,0,.93-.23A2,2,0,0,0,59,42v0c0-.37,0-.74,0-1.1C58.25,25.23,52.52,21,48,20.18V17a2,2,0,0,0-2-2,2,2,0,0,0-2,2v3.26C39.76,21.37,35.53,26.18,35.05,36.91Z"/><path fill="#f78769" d="M29,22.5V43.89A11.1,11.1,0,0,1,7.41,47.54L6.1,43.77A1.94,1.94,0,0,0,7,44a2,2,0,0,0,2-1.94C9.34,30.39,12.5,24,18,24c3.82,0,6.57,5.29,7,13.09a2,2,0,0,0,4-.18C28.47,26.18,24.24,21.37,20,20.26V17a2,2,0,0,0-2-2,2,2,0,0,0-2,2v3.18C11.48,21,5.75,25.23,5.07,40.83A56.06,56.06,0,0,1,2,22.5a13.5,13.5,0,1,1,27,0Z"/><path fill="#f8de40" d="M29,36.91a2,2,0,0,1-4,.18C24.57,29.29,21.82,24,18,24c-5.5,0-8.66,6.39-9,18.06A2,2,0,0,1,7,44a1.94,1.94,0,0,1-.93-.23A2,2,0,0,1,5,42v0c0-.37,0-.74,0-1.1C5.75,25.23,11.48,21,16,20.18V17a2,2,0,0,1,2-2,2,2,0,0,1,2,2v3.26C24.24,21.37,28.47,26.18,29,36.91Z"/><path fill="#0a6b61" d="M17.89,56A12.09,12.09,0,0,1,6.47,47.87L5.16,44.1A1,1,0,0,1,5.45,43a1,1,0,0,1,1.12-.12,1,1,0,0,0,1.15-.17,1,1,0,0,0,.3-.67c.42-15.75,5.66-19,10-19,3.39,0,7.5,3.67,8,14a1,1,0,0,0,2,0c-.23-5.25-1.34-9.3-3.32-12.07a1,1,0,0,1,1.64-1.16c2.19,3.09,3.43,7.5,3.68,13.1V37a3,3,0,0,1-6,.12C23.54,27.53,19.88,25,18,25c-6.22,0-7.77,9.3-8,17.1a3,3,0,0,1-.9,2.06A3.07,3.07,0,0,1,7.57,45l.78,2.26a10.11,10.11,0,0,0,14.73,5.36,1,1,0,1,1,1,1.7A12,12,0,0,1,17.89,56Z"/><path fill="#0a6b61" d="M26.6,51.8a1,1,0,0,1-.62-.22,1,1,0,0,1-.16-1.4A10.22,10.22,0,0,0,28,43.89V22.5A12.5,12.5,0,0,0,6.66,13.66c-.18.18-.36.36-.52.55a1,1,0,0,1-1.52-1.3c.2-.23.4-.45.62-.67A14.5,14.5,0,0,1,30,22.5V43.89a12.13,12.13,0,0,1-2.62,7.53A1,1,0,0,1,26.6,51.8Z"/><path fill="#0a6b61" d="M5.07 41.82a1 1 0 0 1-.94-.67A56.69 56.69 0 0 1 1 22.5a14.41 14.41 0 0 1 .12-1.83 1 1 0 1 1 2 .25A12.3 12.3 0 0 0 3 22.5 55 55 0 0 0 4.53 35.44C6.08 24.25 10.8 20.43 15 19.36V17a3 3 0 0 1 3.5-3A3.08 3.08 0 0 1 21 17.11V19.6a10.47 10.47 0 0 1 2.18 1.12 1 1 0 1 1-1.1 1.66 8.63 8.63 0 0 0-2.35-1.1 1 1 0 0 1-.73-1V17.11A1.07 1.07 0 0 0 18.18 16a1 1 0 0 0-.83.22A1 1 0 0 0 17 17v3.17a1 1 0 0 1-.83 1C10.06 22.23 6.56 29 6.07 40.86a1 1 0 0 1-.85 1zM3.16 18a1 1 0 0 1-.37-.08 1 1 0 0 1-.54-1.26s0-.1 0-.11A1.06 1.06 0 0 1 3.62 16a1 1 0 0 1 .55 1.25l-.06.13A1.07 1.07 0 0 1 3.16 18z"/><path fill="#0a6b61" d="M7 45a2.94 2.94 0 0 1-1.4-.35A3 3 0 0 1 4 41.9c0-.39 0-.77 0-1.14C4.71 25.41 10.19 20.58 15 19.36V17a3 3 0 0 1 3.5-3A3.08 3.08 0 0 1 21 17.11V19.6a10.47 10.47 0 0 1 2.18 1.12 1 1 0 1 1-1.1 1.66 8.63 8.63 0 0 0-2.35-1.1 1 1 0 0 1-.73-1V17.11A1.07 1.07 0 0 0 18.18 16a1 1 0 0 0-.83.22A1 1 0 0 0 17 17v3.17a1 1 0 0 1-.83 1C10.06 22.23 6.56 29 6.07 40.86c0 .37 0 .73 0 1.1a1 1 0 0 0 1.69.76 1 1 0 0 0 .3-.67c.42-15.75 5.66-19 10-19 3.39 0 7.5 3.67 8 14a1 1 0 0 0 2 0c-.23-5.25-1.34-9.3-3.32-12.07a1 1 0 0 1 1.64-1.16c2.19 3.09 3.43 7.5 3.68 13.1V37a3 3 0 0 1-6 .12C23.54 27.53 19.88 25 18 25c-6.22 0-7.77 9.3-8 17.1a3 3 0 0 1-.9 2.06A3.07 3.07 0 0 1 7 45zM35 23h0a1 1 0 0 1-1-1 14.55 14.55 0 0 1 4.23-9.72 14.73 14.73 0 0 1 4.36-3 1 1 0 0 1 .82 1.82 12.94 12.94 0 0 0-3.77 2.59A12.52 12.52 0 0 0 36 22 1 1 0 0 1 35 23zM46.11 56A12.12 12.12 0 0 1 34 43.89V26a1 1 0 0 1 2 0V43.89a10.1 10.1 0 0 0 19.65 3.32L56.43 45a3.07 3.07 0 0 1-1.55-.79 3 3 0 0 1-.9-2.07 51.38 51.38 0 0 0-.62-7 1 1 0 0 1 2-.33A53.82 53.82 0 0 1 56 42a1 1 0 0 0 .3.68 1 1 0 0 0 1.15.17 1 1 0 0 1 1.12.12 1 1 0 0 1 .29 1.09l-1.31 3.77A12.09 12.09 0 0 1 46.11 56z"/><path fill="#0a6b61" d="M58.93,41.82h-.15a1,1,0,0,1-.85-1c-.49-11.82-4-18.63-10.1-19.7a1,1,0,0,1-.83-1V17a1,1,0,0,0-.35-.76,1,1,0,0,0-.83-.22A1.07,1.07,0,0,0,45,17.11v3.21a1,1,0,0,1-.73,1C41.42,22.1,36.55,25.22,36,37a1,1,0,0,0,1,1,1,1,0,0,0,1-1c.46-10.35,4.57-14,8-14,4,0,6.79,2.62,8.41,7.78a1,1,0,1,1-1.9.6C51.15,27.09,49,25,46,25c-1.88,0-5.54,2.53-6,12.11A3,3,0,0,1,34,37v-.13c.53-12.1,5.55-16,9-17.27V17.11A3.08,3.08,0,0,1,45.5,14,3,3,0,0,1,49,17v2.36c4.2,1.07,8.92,4.89,10.47,16.08A55,55,0,0,0,61,22.5,12.5,12.5,0,0,0,48.5,10a12.3,12.3,0,0,0-1.58.1,1,1,0,0,1-1.12-.86,1,1,0,0,1,.87-1.12A14.48,14.48,0,0,1,63,22.5a56.94,56.94,0,0,1-3.12,18.65A1,1,0,0,1,58.93,41.82Z"/><path fill="#0a6b61" d="M57,45a3.07,3.07,0,0,1-2.09-.84,3,3,0,0,1-.9-2.07,51.38,51.38,0,0,0-.62-7,1,1,0,0,1,2-.33A53.82,53.82,0,0,1,56,42a1,1,0,0,0,.3.68A1,1,0,0,0,58,42c0-.37,0-.73,0-1.08-.49-11.84-4-18.65-10.1-19.72a1,1,0,0,1-.83-1V17a1,1,0,0,0-.35-.76,1,1,0,0,0-.83-.22A1.07,1.07,0,0,0,45,17.11v3.21a1,1,0,0,1-.73,1C41.42,22.1,36.55,25.22,36,37a1,1,0,0,0,1,1,1,1,0,0,0,1-1c.46-10.35,4.57-14,8-14,4,0,6.79,2.62,8.41,7.78a1,1,0,1,1-1.9.6C51.15,27.09,49,25,46,25c-1.88,0-5.54,2.53-6,12.11A3,3,0,0,1,34,37v-.13c.53-12.1,5.55-16,9-17.27V17.11A3.08,3.08,0,0,1,45.5,14,3,3,0,0,1,49,17v2.36c4.81,1.22,10.29,6.05,10.93,21.42,0,.35,0,.73,0,1.12a3,3,0,0,1-1.6,2.75A2.94,2.94,0,0,1,57,45Z"/></g></svg>