<?xml version="1.0" encoding="UTF-8" standalone="no"?>
<svg xmlns:dc="http://purl.org/dc/elements/1.1/" xmlns:cc="http://creativecommons.org/ns#" xmlns:rdf="http://www.w3.org/1999/02/22-rdf-syntax-ns#" xmlns:svg="http://www.w3.org/2000/svg" xmlns="http://www.w3.org/2000/svg" xmlns:sodipodi="http://sodipodi.sourceforge.net/DTD/sodipodi-0.dtd" xmlns:inkscape="http://www.inkscape.org/namespaces/inkscape" width="512" height="512" viewBox="0 0 512.00001 512.00001" id="svg13380" version="1.1" inkscape:version="0.91 r13725" sodipodi:docname="shopping-bag-purchase-sale-buy-discount.svg">
  <defs id="defs13382"/>
  <sodipodi:namedview id="base" pagecolor="#ffffff" bordercolor="#666666" borderopacity="1.0" inkscape:pageopacity="0.0" inkscape:pageshadow="2" inkscape:zoom="0.80117187" inkscape:cx="57.012472" inkscape:cy="304.04708" inkscape:document-units="px" inkscape:current-layer="layer1" showgrid="false" units="px" inkscape:window-width="1366" inkscape:window-height="716" inkscape:window-x="-8" inkscape:window-y="-8" inkscape:window-maximized="1"/>
  
  <g inkscape:label="Layer 1" inkscape:groupmode="layer" id="layer1" transform="translate(0,-540.36216)">
    <g id="g15056" transform="matrix(1.417166,0,0,1.417166,622.27158,4563.7958)">
      <g transform="translate(-4743.1947,-2784.1266)" id="g15058">
        <g id="g15060">
          <path style="fill:#e74c3c;fill-opacity:1;fill-rule:evenodd;stroke:none;stroke-width:1px;stroke-linecap:butt;stroke-linejoin:miter;stroke-opacity:1" d="m 4317.594,-7.5909 284.964,-36.06245 2.8284,14.84925 46.6691,0 -2.1213,238.29498 -280.7214,85.55992 -48.0833,-56.56854 z" id="path15062" inkscape:connector-curvature="0"/>
          <path style="fill:#b4392b;fill-opacity:1;fill-rule:evenodd;stroke:none;stroke-width:1px;stroke-linecap:butt;stroke-linejoin:miter;stroke-opacity:1" d="m 4317.25,-7.38784 58.25,4.75 -22.5,13.750003 15.75,283.249997 -47.6647,-56.01249 z" id="path15064" inkscape:connector-curvature="0"/>
          <path style="fill:#e74c3c;fill-opacity:1;fill-rule:evenodd;stroke:none;stroke-width:1px;stroke-linecap:butt;stroke-linejoin:miter;stroke-opacity:1" d="m 4353.125,11.14341 23.3156,-14.3298859 0.2646,11.7583474 z" id="path15066" inkscape:connector-curvature="0" sodipodi:nodetypes="ccc"/>
          <path style="fill:#e74c3c;fill-opacity:1;fill-rule:evenodd;stroke:none;stroke-width:1px;stroke-linecap:butt;stroke-linejoin:miter;stroke-opacity:1" d="m 4605.2981,-28.8483 -0.1768,7.07107 47.111,-6.850099 z" id="path15068" inkscape:connector-curvature="0"/>
          <path sodipodi:nodetypes="ccccccc" style="fill:#e74c3c;fill-opacity:1;fill-rule:evenodd;stroke:none;stroke-width:1px;stroke-linecap:butt;stroke-linejoin:miter;stroke-opacity:1" d="m 4317.9047,-7.5685834 284.689,-36.0692566 2.9695,15.36406 -0.1767,6.71752 -228.6828,30.05204 -0.221,-11.35791 z" id="path15070" inkscape:connector-curvature="0"/>
          <path inkscape:connector-curvature="0" id="path15072" d="m 4317.9047,-7.5685834 284.689,-36.0692566 2.9695,15.36406 -0.1767,6.71752 -228.6828,30.05204 -0.221,-11.35791 z" style="opacity:0.2;fill:#000000;fill-opacity:1;fill-rule:evenodd;stroke:none;stroke-width:1px;stroke-linecap:butt;stroke-linejoin:miter;stroke-opacity:1" sodipodi:nodetypes="ccccccc"/>
          <path sodipodi:nodetypes="ccc" inkscape:connector-curvature="0" id="path15074" d="m 4353.125,11.14341 23.3156,-14.3298859 0.2646,11.7583474 z" style="opacity:0.2;fill:#3b3c3d;fill-opacity:1;fill-rule:evenodd;stroke:none;stroke-width:1px;stroke-linecap:butt;stroke-linejoin:miter;stroke-opacity:1"/>
          <path inkscape:connector-curvature="0" id="path15076" d="m 4605.2981,-28.8483 -0.1768,7.07107 47.111,-6.850099 z" style="opacity:0.2;fill:#3b3c3d;fill-opacity:1;fill-rule:evenodd;stroke:none;stroke-width:1px;stroke-linecap:butt;stroke-linejoin:miter;stroke-opacity:1"/>
        </g>
        <ellipse ry="6.3968191" rx="5.1063304" cy="16.580824" cx="4449.5801" id="ellipse15078" style="opacity:1;fill:#ad0000;fill-opacity:1;stroke:none;stroke-width:3;stroke-linecap:round;stroke-linejoin:miter;stroke-miterlimit:4;stroke-dasharray:9, 9;stroke-dashoffset:0;stroke-opacity:1"/>
        <ellipse style="opacity:1;fill:#ad0000;fill-opacity:1;stroke:none;stroke-width:3;stroke-linecap:round;stroke-linejoin:miter;stroke-miterlimit:4;stroke-dasharray:9, 9;stroke-dashoffset:0;stroke-opacity:1" id="ellipse15080" cx="4554.1538" cy="3.7480588" rx="4.9425077" ry="6.9975019"/>
        <g transform="matrix(1.0874922,-0.23396043,0.13605595,1.1067314,-409.18581,1071.2148)" id="g15082">
          <g id="g15084" transform="matrix(1.199513,0,0,1.199513,-881.09799,2.5001597)">
            <path inkscape:transform-center-y="-2.2690129" inkscape:transform-center-x="-1.140789" d="m 4512.708,99.08982 -9.3296,-5.877746 -3.7189,10.307106 -6.3701,-9.000626 -7.3801,8.099386 -2.4409,-10.753239 -9.9178,4.658605 1.86,-10.868766 -10.9456,0.508598 5.8777,-9.329625 -10.3071,-3.71884 9.0006,-6.370134 -8.0994,-7.380117 10.7533,-2.440847 -4.6586,-9.917838 10.8687,1.860036 -0.5086,-10.945659 9.3297,5.877746 3.7188,-10.307102 6.3701,9.000622 7.3801,-8.099383 2.4409,10.753236 9.9178,-4.658606 -1.86,10.868766 10.9457,-0.508597 -5.8778,9.329625 10.3071,3.718839 -9.0006,6.370134 8.0994,7.380117 -10.7533,2.440847 4.6586,9.917839 -10.8687,-1.860037 z" inkscape:randomized="0" inkscape:rounded="0" inkscape:flatsided="false" sodipodi:arg2="1.2456676" sodipodi:arg1="1.0471976" sodipodi:r2="26.073086" sodipodi:r1="35.316345" sodipodi:cy="68.504967" sodipodi:cx="4495.0498" sodipodi:sides="16" id="path15086" style="opacity:1;fill:#ffffff;fill-opacity:1;stroke:none;stroke-width:3;stroke-linecap:round;stroke-linejoin:miter;stroke-miterlimit:4;stroke-dasharray:9, 9;stroke-dashoffset:0;stroke-opacity:1" sodipodi:type="star"/>
            <g id="g15088" style="font-style:normal;font-weight:normal;font-size:11.25px;line-height:125%;font-family:Sans;letter-spacing:0px;word-spacing:0px;fill:#e74c3c;fill-opacity:1;stroke:none;stroke-width:1px;stroke-linecap:butt;stroke-linejoin:miter;stroke-opacity:1">
              <path id="path15090" style="font-style:normal;font-variant:normal;font-weight:normal;font-stretch:normal;font-size:20px;font-family:'Bauhaus 93';-inkscape-font-specification:'Bauhaus 93, ';fill:#e74c3c;fill-opacity:1" d="m 4484.9619,71.312584 0,3.857422 -8.6133,0 4.2774,-8.027344 0.1465,-0.273437 q 0.1757,-0.322266 0.1757,-0.634766 0,-0.791016 -0.9277,-0.791016 -0.3613,0 -0.6348,0.273438 -0.2636,0.263672 -0.2636,0.625 0,0.410156 0.3515,0.742187 l -1.709,3.046875 q -1.0742,-0.664062 -1.6503,-1.689453 -0.5762,-1.02539 -0.5762,-2.265625 0,-1.923828 1.3574,-3.291015 1.3574,-1.376954 3.2813,-1.376954 1.9336,0 3.2812,1.357422 1.3574,1.357422 1.3574,3.300782 0,1.113281 -0.498,2.070312 l -1.582,3.076172 2.2265,0 z" inkscape:connector-curvature="0"/>
              <path id="path15092" style="font-style:normal;font-variant:normal;font-weight:normal;font-stretch:normal;font-size:20px;font-family:'Bauhaus 93';-inkscape-font-specification:'Bauhaus 93, ';fill:#e74c3c;fill-opacity:1" d="m 4495.2354,61.839928 0,3.828125 -3.2813,0 -0.1758,0.605468 q 1.7969,0.517579 2.6563,1.494141 1.1816,1.328125 1.1816,3.183594 0,1.96289 -1.4453,3.261719 -1.4355,1.289062 -3.623,1.289062 -1.4747,0 -2.9102,-0.771484 l 0,-3.28125 q 1.1426,0.55664 2.0117,0.55664 0.8985,0 1.416,-0.410156 0.5274,-0.410156 0.5274,-1.113281 0,-0.791016 -0.8106,-1.337891 -0.8008,-0.546875 -1.9824,-0.546875 -0.4492,0 -1.1914,0.166016 l 1.4355,-6.923828 6.1915,0 z" inkscape:connector-curvature="0"/>
              <path id="path15094" style="font-style:normal;font-variant:normal;font-weight:normal;font-stretch:normal;font-size:20px;font-family:'Bauhaus 93';-inkscape-font-specification:'Bauhaus 93, ';fill:#e74c3c;fill-opacity:1" d="m 4502.0518,61.654381 q 1.4453,0 2.4707,1.02539 1.0254,1.015625 1.0254,2.460938 0,1.455078 -1.0254,2.480469 -1.0157,1.015625 -2.4707,1.015625 -1.4454,0 -2.4707,-1.025391 -1.0157,-1.025391 -1.0157,-2.470703 0,-1.435547 1.0254,-2.460938 1.0254,-1.02539 2.461,-1.02539 z m 0.01,1.953125 q -0.6347,0 -1.084,0.449219 -0.4492,0.449218 -0.4492,1.083984 0,0.634766 0.4492,1.083984 0.4493,0.449219 1.084,0.449219 0.6348,0 1.084,-0.449219 0.4492,-0.449218 0.4492,-1.083984 0,-0.634766 -0.4492,-1.083984 -0.4492,-0.449219 -1.084,-0.449219 z m 7.7149,-1.767578 -5.3809,13.330078 -1.1914,0 5.4102,-13.330078 1.1621,0 z m 1.2988,6.474609 q 1.4355,0 2.4609,1.025391 1.0254,1.02539 1.0254,2.470703 0,1.445312 -1.0254,2.470703 -1.0254,1.025391 -2.4609,1.025391 -1.4453,0 -2.4707,-1.025391 -1.0254,-1.025391 -1.0254,-2.470703 0,-1.445313 1.0254,-2.470703 1.0254,-1.025391 2.4707,-1.025391 z m 0,1.953125 q -0.6348,0 -1.084,0.449219 -0.4492,0.449219 -0.4492,1.083984 0,0.644531 0.4492,1.09375 0.4492,0.449219 1.084,0.449219 0.6348,0 1.084,-0.449219 0.4492,-0.449219 0.4492,-1.09375 0,-0.634765 -0.4492,-1.083984 -0.4492,-0.449219 -1.084,-0.449219 z" inkscape:connector-curvature="0"/>
            </g>
          </g>
          <g id="g15096" style="font-style:normal;font-weight:normal;font-size:11.25px;line-height:125%;font-family:Sans;letter-spacing:0px;word-spacing:0px;fill:#ffffff;fill-opacity:1;stroke:none;stroke-width:1px;stroke-linecap:butt;stroke-linejoin:miter;stroke-opacity:1">
            <path id="path15098" style="font-style:normal;font-variant:normal;font-weight:normal;font-stretch:normal;font-size:50px;font-family:'Franklin Gothic Heavy';-inkscape-font-specification:'Franklin Gothic Heavy, ';fill:#ffffff" d="m 4451.9834,166.65915 9.4971,-1.70899 q 1.1963,4.02833 6.1523,4.02833 3.8574,0 3.8574,-2.05079 0,-1.07421 -0.9033,-1.66015 -0.8789,-0.61035 -3.1738,-1.07422 -8.7647,-1.68457 -11.2549,-4.39453 -2.4902,-2.70996 -2.4902,-6.37207 0,-4.71192 3.5644,-7.83692 3.5889,-3.125 10.3028,-3.125 10.1806,0 13.4521,8.17871 l -8.4717,2.56348 q -1.3183,-3.34473 -5.3467,-3.34473 -3.3447,0 -3.3447,2.0752 0,0.92773 0.7569,1.44043 0.7568,0.51269 2.9296,0.97656 5.9815,1.26953 8.4961,2.2461 2.5147,0.97656 4.1993,3.34472 1.6845,2.34375 1.6845,5.54199 0,5.05372 -4.1015,8.20313 -4.1016,3.125 -10.7666,3.125 -12.1827,0 -15.0391,-10.15625 z" inkscape:connector-curvature="0"/>
            <path id="path15100" style="font-style:normal;font-variant:normal;font-weight:normal;font-stretch:normal;font-size:50px;font-family:'Franklin Gothic Heavy';-inkscape-font-specification:'Franklin Gothic Heavy, ';fill:#ffffff" d="m 4503.9365,176.3027 -1.8799,-6.56738 -8.9355,0 -2.002,6.56738 -8.3007,0 10.3027,-33.32519 10.8154,0 10.4248,33.32519 -10.4248,0 z m -9.082,-13.84277 5.4199,0 -2.7099,-9.66797 -2.71,9.66797 z" inkscape:connector-curvature="0"/>
            <path id="path15102" style="font-style:normal;font-variant:normal;font-weight:normal;font-stretch:normal;font-size:50px;font-family:'Franklin Gothic Heavy';-inkscape-font-specification:'Franklin Gothic Heavy, ';fill:#ffffff" d="m 4540.8994,168.12399 0,8.17871 -23.3642,0 0,-33.32519 10.2294,0 0,25.14648 13.1348,0 z" inkscape:connector-curvature="0"/>
            <path id="path15104" style="font-style:normal;font-variant:normal;font-weight:normal;font-stretch:normal;font-size:50px;font-family:'Franklin Gothic Heavy';-inkscape-font-specification:'Franklin Gothic Heavy, ';fill:#ffffff" d="m 4569.5615,168.34372 0,7.95898 -25.0732,0 0,-33.32519 25.0732,0 0,7.69043 -15.039,0 0,4.83398 12.1582,0 0,7.39746 -12.1582,0 0,5.44434 15.039,0 z" inkscape:connector-curvature="0"/>
          </g>
        </g>
        <path style="opacity:0.2;fill:none;fill-rule:evenodd;stroke:#3b3c3d;stroke-width:6;stroke-linecap:round;stroke-linejoin:round;stroke-opacity:1" d="m 4554.9174,2.0949344 c 0,0 -8.6566,6.8730492 -11.021,11.6737236 -4.1411,8.407538 -1.4065,18.89621 -4.4426,27.762819 -4.6922,13.703041 -10.8912,27.616252 -20.8754,38.109402 -3.3056,3.474154 -7.6625,6.161309 -12.2586,7.529903 -19.4142,5.781049 -42.3472,10.175204 -60.7461,1.700874 -3.9425,-1.815888 -6.2158,-6.260074 -8.1835,-10.129095 -2.4282,-4.774632 -4.379,-10.172101 -4.1529,-15.523934 0.6882,-16.288991 16.58,-46.014649 16.58,-46.014649" id="path15106" inkscape:connector-curvature="0" sodipodi:nodetypes="caaaaaaac"/>
        <path sodipodi:nodetypes="caaaaaaac" inkscape:connector-curvature="0" id="path15108" d="m 4450.3208,16.869369 c 0,0 9.5204,4.764751 12.9179,8.68686 6.1363,7.08382 7.8575,17.026059 12.2018,25.330354 2.9069,5.556545 4.3061,12.536328 9.2672,16.372056 3.7938,2.93325 9.1053,3.710805 13.9008,3.70688 20.2566,-0.01658 43.4881,-2.369026 58.6923,-15.754242 3.258,-2.868189 4.1644,-7.777077 4.9425,-12.047362 0.9603,-5.269837 0.3774,-10.772934 -0.4633,-16.06315 -1.3731,-8.639838 -7.4138,-25.175897 -7.4138,-25.175897" style="fill:none;fill-rule:evenodd;stroke:#3b3c3d;stroke-width:8;stroke-linecap:round;stroke-linejoin:round;stroke-opacity:1"/>
      </g>
    </g>
  </g>

	<metadata>
		<rdf:RDF xmlns:rdf="http://www.w3.org/1999/02/22-rdf-syntax-ns#" xmlns:rdfs="http://www.w3.org/2000/01/rdf-schema#" xmlns:dc="http://purl.org/dc/elements/1.1/">
			<rdf:Description about="https://iconscout.com/legal#licenses" dc:title="shopping-bag-purchase-sale-buy-discount" dc:description="shopping-bag-purchase-sale-buy-discount" dc:publisher="Iconscout" dc:date="2017-06-28" dc:format="image/svg+xml" dc:language="en">
				<dc:creator>
					<rdf:Bag>
						<rdf:li>Vignesh Oviyan</rdf:li>
					</rdf:Bag>
				</dc:creator>
			</rdf:Description>
		</rdf:RDF>
    </metadata></svg>
