<?xml version="1.0" encoding="UTF-8" standalone="no"?>
<svg xmlns="http://www.w3.org/2000/svg" viewBox="0 0 24 24"><title>Send Mail</title><g id="Send_Mail" data-name="Send Mail"><path d="M4.55,16h-4a.5.5,0,1,0,0,1h4a.5.5,0,1,0,0-1Z" style="fill:#303c42"/><path d="M5.05,13H.51a.5.5,0,1,0,0,1H5.05a.5.5,0,1,0,0-1Z" style="fill:#303c42"/><path d="M5.56,10H.51a.5.5,0,1,0,0,1H5.56a.5.5,0,1,0,0-1Z" style="fill:#303c42"/><path d="M9.44,8.07c2,2,4.29,4.17,5,4.8a.52.52,0,0,0,.35.13.53.53,0,0,0,.18,0,1.28,1.28,0,0,0,.3-.15c.89-.6,3.79-2.5,6.49-4.27l1.89-1.24a.5.5,0,0,0,.08-.77A1.88,1.88,0,0,0,22.38,6H9.82a2,2,0,0,0-1.25.43.5.5,0,0,0,0,.75Z" style="fill:#303c42"/><path d="M23.78,8.78a.51.51,0,0,0-.56,0l-1.13.74c-2.64,1.73-5.41,3.54-6.28,4.13a1.67,1.67,0,0,1-2.09,0c-.69-.64-3-2.86-5-4.84L8.44,8.5a.51.51,0,0,0-.5-.12.5.5,0,0,0-.35.38l-1.49,7A1.86,1.86,0,0,0,7.94,18H20.5a2,2,0,0,0,2-1.59L24,9.3A.5.5,0,0,0,23.78,8.78Z" style="fill:#303c42"/><path d="M.51,8H6.06a.5.5,0,1,0,0-1H.51a.5.5,0,1,0,0,1Z" style="fill:#303c42"/></g>
	<metadata>
		<rdf:RDF xmlns:rdf="http://www.w3.org/1999/02/22-rdf-syntax-ns#" xmlns:rdfs="http://www.w3.org/2000/01/rdf-schema#" xmlns:dc="http://purl.org/dc/elements/1.1/">
			<rdf:Description about="https://iconscout.com/legal#licenses" dc:title="send; mail; email; fast; delivery" dc:description="send; mail; email; fast; delivery" dc:publisher="Iconscout" dc:date="2017-02-21" dc:format="image/svg+xml" dc:language="en">
				<dc:creator>
					<rdf:Bag>
						<rdf:li>Alpár - Etele Méder</rdf:li>
					</rdf:Bag>
				</dc:creator>
			</rdf:Description>
		</rdf:RDF>
    </metadata></svg>
